<svg width="649" height="445" viewBox="0 0 649 445" fill="none" xmlns="http://www.w3.org/2000/svg">
<path fill-rule="evenodd" clip-rule="evenodd" d="M316.5 0C312.91 0 310 2.91015 310 6.5V44H11.7C5.23827 44 0 49.2383 0 55.7V61.3C0 67.7617 5.2383 73 11.7 73H45.974C45.3371 75.6965 45 78.5089 45 81.4V408.6C45 428.703 61.2969 445 81.4 445H564.6C584.703 445 601 428.703 601 408.6V81.4C601 78.5089 600.663 75.6965 600.026 73H637.3C643.762 73 649 67.7617 649 61.3V55.7C649 49.2383 643.762 44 637.3 44H349V6.5C349 2.91015 346.09 0 342.5 0H316.5Z" fill="#8998A2"/>
</svg>
